# generated from PmQm by Jehee Lee
:FULLY-SPECIFIED
:DEGREES
318
root 18.95456701 38.9605 15.44964111 175.3280525 -32.26194192 -173.1486572
RightUpLeg -17.32713056 4.676513007 12.6513899
RightLeg 12.32142963 0 0
RightFoot 3.796795327 21.54861543 -6.187385289
RightToes 2.32829e-010 -1.59028e-015 9.93923e-017
Spine -7.83645 -1.43061 7.21708
Spine1 13.4939 -1.89804 1.99475
HEad -7.51557 -2.16027 3.22743
LeftShoulder1 9.93923e-017 0 1.22299e-017
LeftArm 3.31971 40.2464 -81.5602
LeftForeArm -12.7848 -8.16886 -7.155
LeftHand 1.03904 7.59664 -7.14162
RightShoulder 1.98785e-016 -4.96962e-017 1.55301e-017
RightArm 13.4859 -40.2862 86.3907
RightForeArm -35.0111 17.704 -4.95831
RightHand 1.18406 -10.5387 -5.75478
LeftUpLeg -7.568622198 -7.480825537 10.02789642
LeftLeg 51.66822532 -0.9148543731 12.51887405
LeftFoot 15.80889701 14.66352831 -19.63307826
LeftToes 8.82235e-011 9.04645e-011 1.87288e-011
319
root 18.17770892 39.1443 14.44082411 175.9197835 -29.23398855 -174.3550137
RightUpLeg -15.50778511 4.039591461 11.9983467
RightLeg 13.70387542 0 0
RightFoot 1.03303388 24.97674334 -6.803868204
RightToes 2.32829e-010 -1.59028e-015 9.93923e-017
Spine -7.68166 -0.17435 8.22232
Spine1 13.3304 -0.160738 0.328532
HEad -6.7365 -3.35321 3.01867
LeftShoulder1 9.93923e-017 0 1.22299e-017
LeftArm 5.60205 44.353 -79.4347
LeftForeArm -13.5077 -8.53464 -6.98397
LeftHand 1.03691 7.58639 -7.36546
RightShoulder 1.98785e-016 -4.96962e-017 1.55301e-017
RightArm 23.2456 -37.7105 87.0416
RightForeArm -47.9143 19.9529 -13.667
RightHand 1.16294 -10.4491 -5.53183
LeftUpLeg -12.55385518 -7.431649767 8.096456308
LeftLeg 51.33143708 -3.046093622 10.1030651
LeftFoot 13.05210424 12.22271106 -18.1240125
LeftToes 8.82235e-011 9.04645e-011 1.87288e-011
320
root 17.56433337 39.2712 13.32439062 176.4387999 -26.19430229 -175.33803
RightUpLeg -13.86730441 3.567369158 11.53366039
RightLeg 15.16102538 0 0
RightFoot -1.909758085 28.45482359 -8.676246844
RightToes 2.32829e-010 -1.59028e-015 9.93923e-017
Spine -7.50668 1.16492 9.12466
Spine1 13.1693 1.53409 -1.02202
HEad -6.76522 -4.21988 2.61991
LeftShoulder1 9.93923e-017 0 1.22299e-017
LeftArm 7.35789 48.1467 -76.6541
LeftForeArm -14.7028 -10.3329 -5.82241
LeftHand 1.0147 7.29527 -7.40219
RightShoulder 1.98785e-016 -4.96962e-017 1.55301e-017
RightArm 27.874 -35.0547 86.6223
RightForeArm -54.4254 21.509 -20.8458
RightHand 1.13653 -10.2799 -5.47069
LeftUpLeg -17.03837274 -6.308196071 6.634987664
LeftLeg 48.81769838 -4.816159882 7.327556905
LeftFoot 9.258926194 9.52415091 -16.44324438
LeftToes 8.82235e-011 9.04645e-011 1.87288e-011
321
root 17.29030131 39.3511 11.94708682 176.8301638 -23.73938853 -175.9736408
RightUpLeg -11.8220675 3.024686479 11.87802824
RightLeg 15.86903556 0 0
RightFoot -5.155639772 31.10270377 -11.52288738
RightToes 2.32829e-010 -1.59028e-015 9.93923e-017
Spine -7.5167 2.4629 10.0566
Spine1 13.1436 3.04149 -2.25914
HEad -7.17577 -4.74753 2.14411
LeftShoulder1 9.93923e-017 0 1.22299e-017
LeftArm 9.71386 51.2335 -73.7732
LeftForeArm -17.2206 -12.4679 -4.32667
LeftHand 1.00603 7.18139 -7.52092
RightShoulder 1.98785e-016 -4.96962e-017 1.55301e-017
RightArm 23.4667 -31.7158 85.2526
RightForeArm -49.3998 24.6436 -22.8614
RightHand 1.11765 -10.0563 -5.86373
LeftUpLeg -20.78043664 -4.180165877 5.625377887
LeftLeg 43.70674313 -5.958809662 5.10790908
LeftFoot 5.444860372 7.167980863 -14.95422908
LeftToes 8.82235e-011 9.04645e-011 1.87288e-011
322
root 17.02813349 39.3275 10.54916926 176.8507296 -21.5194811 -176.1178263
RightUpLeg -9.625153487 2.249642828 12.46380819
RightLeg 16.78933397 0 0
RightFoot -8.917415572 33.14117814 -14.20719784
RightToes 2.32829e-010 -1.59028e-015 9.93923e-017
Spine -7.50674 3.43618 11.2677
Spine1 13.3803 4.13737 -3.40054
HEad -7.70232 -4.95186 1.66868
LeftShoulder1 9.93923e-017 0 1.22299e-017
LeftArm 9.94681 53.4464 -71.1492
LeftForeArm -17.9221 -13.2168 -3.49391
LeftHand 1.0069 7.19274 -7.40753
RightShoulder 1.98785e-016 -4.96962e-017 1.55301e-017
RightArm 21.8119 -28.0745 84.0461
RightForeArm -46.3925 27.0863 -24.6167
RightHand 1.13036 -10.0345 -6.34538
LeftUpLeg -23.29652654 -1.909607768 5.050162587
LeftLeg 35.96590658 -6.592032212 3.432657907
LeftFoot 4.17167323 5.741791792 -13.86829095
LeftToes 8.82235e-011 9.04645e-011 1.87288e-011
323
root 16.76596776 39.2265 9.114287896 176.5540057 -19.88330169 -175.9290486
RightUpLeg -7.223374303 1.353921886 13.05985233
RightLeg 17.80618026 0 0
RightFoot -12.61511041 34.58317218 -16.63233776
RightToes 2.32829e-010 -1.59028e-015 9.93923e-017
Spine -7.51407 3.94656 12.4929
Spine1 13.8214 4.73415 -4.4139
HEad -8.20261 -4.98025 1.35199
LeftShoulder1 9.93923e-017 0 1.22299e-017
LeftArm 7.05531 54.8469 -68.866
LeftForeArm -15.3483 -12.2028 -3.69852
LeftHand 0.989239 6.97426 -6.78467
RightShoulder 1.98785e-016 -4.96962e-017 1.55301e-017
RightArm 20.9799 -24.6445 83.1853
RightForeArm -44.7933 28.7058 -25.8324
RightHand 1.16563 -10.225 -6.54391
LeftUpLeg -24.38134345 -0.7451130276 4.673217061
LeftLeg 26.01306267 -6.791826543 2.135029171
LeftFoot 5.357306978 4.810543986 -12.16249728
LeftToes 8.82235e-011 9.04645e-011 1.87288e-011
324
root 16.50072002 39.1368 7.648662014 176.5788152 -18.59955258 -175.8100517
RightUpLeg -4.905076597 0.6026822976 13.42288842
RightLeg 18.37387778 0 0
RightFoot -15.91686285 35.81671838 -19.07541105
RightToes 2.32829e-010 -1.59028e-015 9.93923e-017
Spine -8.09685 4.28993 13.4388
Spine1 14.4793 5.16981 -5.55563
HEad -8.53831 -5.02505 1.2513
LeftShoulder1 9.93923e-017 0 1.22299e-017
LeftArm 3.03309 55.6042 -66.8765
LeftForeArm -11.7008 -10.2295 -4.35487
LeftHand 0.964956 6.70599 -5.97777
RightShoulder 1.98785e-016 -4.96962e-017 1.55301e-017
RightArm 20.1872 -21.9817 82.6238
RightForeArm -44.228 29.6533 -26.5435
RightHand 1.17304 -10.2993 -6.4314
LeftUpLeg -24.57255406 -0.8167357307 4.144852085
LeftLeg 14.57343221 -6.51996782 1.285531833
LeftFoot 6.861206289 3.890914318 -9.920579756
LeftToes 8.82235e-011 9.04645e-011 1.87288e-011
